# Blender v2.80 (sub 75) OBJ File: ''
# www.blender.org
mtllib roundedCube.mtl
o Cube
v 0.900000 0.900000 -1.000000
v 0.900000 1.000000 -0.900000
v 1.000000 0.900000 -0.900000
v 0.900000 0.970711 -0.970711
v 0.957735 0.957735 -0.957735
v 0.970711 0.970711 -0.900000
v 0.970711 0.900000 -0.970711
v 0.900000 -1.000000 -0.900000
v 0.900000 -0.900000 -1.000000
v 1.000000 -0.900000 -0.900000
v 0.900000 -0.970711 -0.970711
v 0.957735 -0.957735 -0.957735
v 0.970711 -0.900000 -0.970711
v 0.970711 -0.970711 -0.900000
v 1.000000 0.900000 0.900000
v 0.900000 1.000000 0.900000
v 0.900000 0.900000 1.000000
v 0.970711 0.970711 0.900000
v 0.957735 0.957735 0.957735
v 0.900000 0.970711 0.970711
v 0.970711 0.900000 0.970711
v 1.000000 -0.900000 0.900000
v 0.900000 -0.900000 1.000000
v 0.900000 -1.000000 0.900000
v 0.970711 -0.900000 0.970711
v 0.957735 -0.957735 0.957735
v 0.900000 -0.970711 0.970711
v 0.970711 -0.970711 0.900000
v -0.900000 0.900000 -1.000000
v -1.000000 0.900000 -0.900000
v -0.900000 1.000000 -0.900000
v -0.970711 0.900000 -0.970711
v -0.957735 0.957735 -0.957735
v -0.970711 0.970711 -0.900000
v -0.900000 0.970711 -0.970711
v -1.000000 -0.900000 -0.900000
v -0.900000 -0.900000 -1.000000
v -0.900000 -1.000000 -0.900000
v -0.970711 -0.900000 -0.970711
v -0.957735 -0.957735 -0.957735
v -0.900000 -0.970711 -0.970711
v -0.970711 -0.970711 -0.900000
v -1.000000 0.900000 0.900000
v -0.900000 0.900000 1.000000
v -0.900000 1.000000 0.900000
v -0.970711 0.900000 0.970711
v -0.957735 0.957735 0.957735
v -0.900000 0.970711 0.970711
v -0.970711 0.970711 0.900000
v -0.900000 -1.000000 0.900000
v -0.900000 -0.900000 1.000000
v -1.000000 -0.900000 0.900000
v -0.900000 -0.970711 0.970711
v -0.957735 -0.957735 0.957735
v -0.970711 -0.900000 0.970711
v -0.970711 -0.970711 0.900000
vt 0.387500 0.762500
vt 0.612500 0.762500
vt 0.612500 0.987500
vt 0.387500 0.987500
vt 0.387500 0.512500
vt 0.612500 0.512500
vt 0.612500 0.737500
vt 0.387500 0.737500
vt 0.387500 0.262500
vt 0.612500 0.262500
vt 0.612500 0.487500
vt 0.387500 0.487500
vt 0.387500 0.012500
vt 0.612500 0.012500
vt 0.612500 0.237500
vt 0.387500 0.237500
vt 0.137500 0.512500
vt 0.362500 0.512500
vt 0.362500 0.737500
vt 0.137500 0.737500
vt 0.862500 0.737500
vt 0.875000 0.737500
vt 0.875000 0.744717
vt 0.862500 0.750000
vt 0.375000 0.012500
vt 0.375000 0.005283
vt 0.387500 0.000000
vt 0.362500 0.500000
vt 0.369717 0.500000
vt 0.375000 0.512500
vt 0.612500 0.750000
vt 0.619717 0.750000
vt 0.625000 0.762500
vt 0.637500 0.737500
vt 0.637500 0.750000
vt 0.630283 0.750000
vt 0.625000 0.737500
vt 0.125000 0.512500
vt 0.125000 0.505283
vt 0.137500 0.500000
vt 0.375000 0.737500
vt 0.375000 0.744717
vt 0.362500 0.750000
vt 0.387500 0.250000
vt 0.380283 0.250000
vt 0.375000 0.237500
vt 0.612500 0.250000
vt 0.619717 0.250000
vt 0.625000 0.262500
vt 0.137500 0.750000
vt 0.130283 0.750000
vt 0.125000 0.737500
vt 0.375000 0.262500
vt 0.375000 0.255283
vt 0.387500 0.250000
vt 0.625000 0.987500
vt 0.625000 0.994717
vt 0.612500 1.000000
vt 0.862500 0.512500
vt 0.862500 0.500000
vt 0.869717 0.500000
vt 0.875000 0.512500
vt 0.625000 0.737500
vt 0.625000 0.744717
vt 0.612500 0.750000
vt 0.612500 0.000000
vt 0.619717 0.000000
vt 0.625000 0.012500
vt 0.387500 0.750000
vt 0.380283 0.750000
vt 0.375000 0.737500
vt 0.637500 0.512500
vt 0.625000 0.512500
vt 0.625000 0.505283
vt 0.637500 0.500000
vt 0.375000 0.762500
vt 0.375000 0.755283
vt 0.387500 0.750000
vt 0.612500 0.500000
vt 0.619717 0.500000
vt 0.625000 0.512500
vt 0.625000 0.487500
vt 0.625000 0.494717
vt 0.625000 0.237500
vt 0.625000 0.244717
vt 0.612500 0.250000
vt 0.387500 1.000000
vt 0.380283 1.000000
vt 0.375000 0.987500
vt 0.387500 0.500000
vt 0.380283 0.500000
vt 0.375000 0.487500
vt 0.375000 0.512500
vt 0.375000 0.505283
vn 0.0000 -1.0000 0.0000
vn -1.0000 0.0000 0.0000
vn 0.0000 0.0000 1.0000
vn 0.0000 1.0000 0.0000
vn 1.0000 0.0000 0.0000
vn 0.3251 0.3251 -0.8881
vn 0.3251 0.8881 -0.3251
vn 0.8881 0.3251 -0.3251
vn 0.3251 -0.8881 -0.3251
vn 0.3251 -0.3251 -0.8881
vn 0.8881 -0.3251 -0.3251
vn 0.8881 0.3251 0.3251
vn 0.3251 0.8881 0.3251
vn 0.3251 0.3251 0.8881
vn 0.8881 -0.3251 0.3251
vn 0.3251 -0.3251 0.8881
vn 0.3251 -0.8881 0.3251
vn -0.3251 0.3251 -0.8881
vn -0.8881 0.3251 -0.3251
vn -0.3251 0.8881 -0.3251
vn -0.8881 -0.3251 -0.3251
vn -0.3251 -0.3251 -0.8881
vn -0.3251 -0.8881 -0.3251
vn -0.8881 0.3251 0.3251
vn -0.3251 0.3251 0.8881
vn -0.3251 0.8881 0.3251
vn -0.3251 -0.8881 0.3251
vn -0.3251 -0.3251 0.8881
vn -0.8881 -0.3251 0.3251
vn -0.3827 -0.9239 0.0000
vn -0.9239 -0.3827 0.0000
vn 0.0000 -0.9239 -0.3827
vn 0.0000 -0.3827 -0.9239
vn 0.9239 0.0000 -0.3827
vn 0.3827 0.0000 -0.9239
vn -0.3827 0.0000 0.9239
vn -0.9239 0.0000 0.3827
vn 0.3827 0.0000 0.9239
vn 0.9239 0.0000 0.3827
vn -0.3827 0.0000 -0.9239
vn -0.9239 0.0000 -0.3827
vn 0.0000 0.9239 0.3827
vn 0.0000 0.3827 0.9239
vn 0.3827 0.9239 0.0000
vn 0.9239 0.3827 0.0000
vn 0.0000 -0.9239 0.3827
vn 0.0000 -0.3827 0.9239
vn -0.3827 0.9239 0.0000
vn -0.9239 0.3827 0.0000
vn 0.0000 0.9239 -0.3827
vn 0.0000 0.3827 -0.9239
vn 0.3827 -0.9239 0.0000
vn 0.9239 -0.3827 0.0000
vn 0.0000 0.0000 -1.0000
usemtl Material
s off
f 38/1/1 8/2/1 24/3/1 50/4/1
f 52/5/2 43/6/2 30/7/2 36/8/2
f 23/9/3 17/10/3 44/11/3 51/12/3
f 2/13/4 31/14/4 45/15/4 16/16/4
f 10/17/5 3/18/5 15/19/5 22/20/5
f 1/21/6 4/22/6 5/23/6 7/24/6
f 2/13/7 6/25/7 5/26/7 4/27/7
f 3/18/8 7/28/8 5/29/8 6/30/8
f 8/2/9 11/31/9 12/32/9 14/33/9
f 9/34/10 13/35/10 12/36/10 11/37/10
f 10/17/11 14/38/11 12/39/11 13/40/11
f 15/19/12 18/41/12 19/42/12 21/43/12
f 16/16/13 20/44/13 19/45/13 18/46/13
f 17/10/14 21/47/14 19/48/14 20/49/14
f 22/20/15 25/50/15 26/51/15 28/52/15
f 23/9/16 27/53/16 26/54/16 25/55/16
f 24/3/17 28/56/17 26/57/17 27/58/17
f 29/59/18 32/60/18 33/61/18 35/62/18
f 30/7/19 34/63/19 33/64/19 32/65/19
f 31/14/20 35/66/20 33/67/20 34/68/20
f 36/8/21 39/69/21 40/70/21 42/71/21
f 37/72/22 41/73/22 40/74/22 39/75/22
f 38/1/23 42/76/23 40/77/23 41/78/23
f 43/6/24 46/79/24 47/80/24 49/81/24
f 44/11/25 48/82/25 47/83/25 46/79/25
f 45/15/26 49/84/26 47/85/26 48/86/26
f 50/4/27 53/87/27 54/88/27 56/89/27
f 51/12/28 55/90/28 54/91/28 53/92/28
f 52/5/29 56/93/29 54/94/29 55/90/29
f 38/1/30 50/4/30 56/89/30 42/76/30
f 42/71/31 56/93/31 52/5/31 36/8/31
f 8/2/32 38/1/32 41/78/32 11/31/32
f 11/37/33 41/73/33 37/72/33 9/34/33
f 3/18/34 10/17/34 13/40/34 7/28/34
f 7/24/35 13/35/35 9/34/35 1/21/35
f 51/12/36 44/11/36 46/79/36 55/90/36
f 55/90/37 46/79/37 43/6/37 52/5/37
f 17/10/38 23/9/38 25/55/38 21/47/38
f 21/43/39 25/50/39 22/20/39 15/19/39
f 29/59/40 37/72/40 39/75/40 32/60/40
f 32/65/41 39/69/41 36/8/41 30/7/41
f 16/16/42 45/15/42 48/86/42 20/44/42
f 20/49/43 48/82/43 44/11/43 17/10/43
f 2/13/44 16/16/44 18/46/44 6/25/44
f 6/30/45 18/41/45 15/19/45 3/18/45
f 50/4/46 24/3/46 27/58/46 53/87/46
f 53/92/47 27/53/47 23/9/47 51/12/47
f 45/15/48 31/14/48 34/68/48 49/84/48
f 49/81/49 34/63/49 30/7/49 43/6/49
f 31/14/50 2/13/50 4/27/50 35/66/50
f 35/62/51 4/22/51 1/21/51 29/59/51
f 24/3/52 8/2/52 14/33/52 28/56/52
f 28/52/53 14/38/53 10/17/53 22/20/53
f 37/72/54 29/59/54 1/21/54 9/34/54
